<?xml version="1.0" encoding="utf-8"?>
<!-- Generator: Adobe Illustrator 27.5.0, SVG Export Plug-In . SVG Version: 6.00 Build 0)  -->
<svg version="1.1" id="Capa_1" xmlns="http://www.w3.org/2000/svg" xmlns:xlink="http://www.w3.org/1999/xlink" x="0px" y="0px"
	 viewBox="0 0 2122 2122" style="enable-background:new 0 0 2122 2122;" xml:space="preserve">
<g>
	<path style="fill:#578A41;" d="M1644.222,671.054c-16.812,22.289-54.813,37.199-80.345,66.804
		c9.669-2.311,19.915-3.963,30.855-4.812c22.232-1.724,46.988-1.804,72.194,0.524c55.538,5.13,113.239,21.971,150.961,58.636
		c4.107-12.179-10.533-39.058-52.753-95.081c-38.995-51.744-40.143-158.868-59.387-247.452
		c-15.973-73.529-60.735-157.939-117.226-206.843c0,0-15.317,5.72-17.078,37.389c53.493,88.904,94.966,154.54,100.349,262.752
		C1673.989,587.145,1671.682,634.648,1644.222,671.054z"/>
	<path style="fill:#3A6F3C;" d="M1644.222,671.054c-16.812,22.289-54.813,37.199-80.345,66.804
		c9.669-2.311,19.915-3.963,30.855-4.812c22.232-1.724,46.988-1.804,72.194,0.524c55.481,5.125,113.121,21.935,150.847,58.521
		c0.869-2.601,0.99-5.788,0.069-9.865c-0.636-0.393-1.267-0.793-1.904-1.185c-23.938-14.752-49.81-25.984-73.603-40.904
		c-21.101-13.231-41.024-30.391-50.75-53.904c-9.93-24.008-4.286-49.985-2.598-75.02c4.856-71.985-2.651-139.559-31.343-206.255
		c-22.123-51.425-52.144-98.865-81.961-146.128c-2.077,5.306-3.732,12.236-4.241,21.388
		c53.493,88.904,94.966,154.54,100.349,262.752C1673.989,587.145,1671.682,634.648,1644.222,671.054z"/>
	<path style="fill:#E63515;" d="M1666.926,733.57c-25.206-2.328-49.961-2.249-72.193-0.524
		c-123.922,9.613-163.085,117.392-188.783,224.876c-67.757,283.398-270.204,607.111-582.515,693.931
		c-158.583,44.085-301.449,64.794-536.49,65.747c-44.227,0.179-17.102,43.149-11.475,48.351
		c72.279,66.754,300.827,96.425,392.256,105.023c201.389,18.939,414.849,5.01,602.51-75.457
		c249.561-107.009,446.023-382.773,521.984-627.861c24.532-79.154,90.242-239.971,58.546-325.361
		C1823.83,769.794,1743.313,740.626,1666.926,733.57z"/>
	<path style="fill:#CD1D0F;" d="M1773.876,1221.044c0.325-0.868,0.665-1.737,0.988-2.603c2.689-7.246,5.266-14.474,7.757-21.687
		c0.482-1.392,0.996-2.789,1.47-4.18c2.836-8.335,5.563-16.647,8.127-24.919c24.532-79.154,90.242-239.971,58.545-325.361
		c-26.933-72.501-107.451-101.669-183.837-108.725c-0.072-0.006-0.143-0.008-0.215-0.015c-25.132-2.307-49.81-2.229-71.979-0.509
		c-13.01,1.009-25.033,3.16-36.251,6.217c23.915-6.503,52.491,51.538,56.789,68.881c16.767,67.672-6.495,146.485-20.805,213.017
		c-14.135,65.715-28.926,135.604-58.618,196.389c-30.173,61.77-83.662,106.976-125.348,160.415
		c-42.647,54.672-71.267,117.786-119.073,169.259c-21.888,23.567-46.887,40.98-77.089,52.125
		c-28.294,10.441-58.275,15.399-86.584,25.861c-68,25.132-115.747,73.198-173.888,113.965
		c-59.647,41.822-132.144,57.415-203.547,64.72c-38.513,3.941-77.261,5.055-115.954,5.314c-37.55,0.252-76.182,2.185-113.591-1.357
		c-72.461-6.861-130.938-53.804-201.778-64.692c-18.854-2.898-37.767-4.124-56.681-4.694c1.474,11.819,10.221,24.774,13.152,27.483
		c72.279,66.754,300.827,96.425,392.256,105.023c201.389,18.939,414.849,5.01,602.511-75.457
		c223.382-95.784,404.145-326.77,494.103-549.945c0.088-0.217,0.178-0.434,0.265-0.651
		C1767.81,1236.948,1770.902,1228.99,1773.876,1221.044z"/>
	<path style="fill:#B70E0C;" d="M1850.763,842.295c-22.07-59.411-80.125-89.71-142.4-102.602
		c-13.99,75.589,14.948,152.583-7.14,227.927c-18.148,61.908-57.593,114.739-77.846,175.907
		c-20.128,60.79-29.478,124.381-48.255,185.527c-18.079,58.878-46.414,110.697-87.457,156.621
		c-42.044,47.044-90.375,88.166-138.912,128.285c-47.411,39.19-93.631,83.503-144.034,118.667
		c-46.755,32.618-101.349,47.526-155.855,61.411c-63.525,16.184-120.908,39.902-175.96,75.894
		c-4.156,2.717-8.304,5.404-12.453,8.093c140.585-3.5,281.237-27.389,409.784-82.508
		c249.561-107.01,446.022-382.773,521.983-627.861C1816.75,1088.501,1882.46,927.684,1850.763,842.295z"/>
	<path style="fill:#ED6C4F;" d="M1510.997,842.897c-49.329,25.498-60.791,99.018-69.502,147.837
		c-12.811,71.81-23.982,137.85-59.919,202.92c-12.471,22.58-28.423,43.853-41.628,66.208
		c-12.086,20.463-40.063,77.094-34.392,102.856c14.624,66.432,119.182-97.22,127.835-111.351
		c19.823-32.366,39.437-66.355,53.531-101.711c23.929-60.034,34.474-166.376,52.99-227.482
		C1552.405,880.951,1566.29,828.967,1510.997,842.897z"/>
	<path style="fill:#ED6C4F;" d="M1289.709,1427.87c-7.572,32.811-100.367,112.693-108.627,73.24
		c11.343-35.944,48.33-90.004,83.975-104.935C1265.057,1396.175,1300.274,1382.088,1289.709,1427.87z"/>
</g>
</svg>
