<?xml version="1.0" encoding="utf-8"?>
<!-- Generator: Adobe Illustrator 27.5.0, SVG Export Plug-In . SVG Version: 6.00 Build 0)  -->
<svg version="1.1" id="Layer_1" xmlns="http://www.w3.org/2000/svg" xmlns:xlink="http://www.w3.org/1999/xlink" x="0px" y="0px"
	 viewBox="0 0 4000 4000" style="enable-background:new 0 0 4000 4000;" xml:space="preserve">
<g>
	<g>
		<g>
			<rect style="fill:#FFEC5E;" width="4000" height="4000"/>
		</g>
	</g>
	<g>
		<g>
			<g>
				<path style="fill:#F9A332;" d="M3000.368,1854.783c0,0,211.131,275.349-332.641,635.695S1365.844,2970.055,1214.981,2582
					s-10.007-273.155,569.617-339.578s965.556-669.124,1058.788-603.417C2936.618,1704.711,3000.368,1854.783,3000.368,1854.783z"/>
			</g>
		</g>
		<g>
			<g style="opacity:0.3;">
				<g>
					<path style="fill:#6D184E;" d="M1160.904,2354.998c5.881,42.671,24.268,99.678,54.077,176.356
						c150.863,388.055,908.973,268.823,1452.746-91.523c284.302-188.4,362.219-353.532,371.868-468.25
						c0.147,1.696,0.28,3.41,0.398,5.139c-1.049-15.221-3.214-29.198-6.038-41.805c-23.135,111.794-112.469,261.431-366.229,429.591
						c-202.417,134.137-433.029,234.747-652.468,288.333c-66.32,15.718-235.799,49.618-282.348,1.657
						c-58.416-60.186,41.394-132.002,132.762-74.346c184.982,116.727,296.736-15.022,338.102-63.727
						c41.364-48.704,92.048-72.576,212.418-86.738c120.372-14.161,177.016-84.968,240.742-185.867
						c63.726-100.9,176.131,4.425,248.708-126.566c72.578-130.993,10.621-149.579,119.486-172.591l-11.506-51.789
						c0,0-94.566,13.801-100.831,56.25c-6.264,42.448,24.714,154.853-73.53,190.256c-98.244,35.404-190.134-18.415-241.547,61.156
						c-51.414,79.572-99.21,172.486-273.57,188.869c-174.362,16.384-176.131,230.575-423.954,135.869
						c-247.823-94.703-226.048,122.689-323.231,108.697c-97.183-13.992-48.504-96.305-123.736-82.144
						c-44.195,8.319-81.271,39.996-104.356,64.724c-60.778-38.438-107.01-91.389-133.887-160.523
						c-19.688-50.64-34.354-92.646-43.779-127.677c-6.16,9.672-9.952,21.136-11.521,34.725
						C1160.001,2360.301,1160.394,2357.597,1160.904,2354.998z"/>
				</g>
			</g>
		</g>
		<g>
			<g>
				<path style="fill:#6D184E;" d="M1683.532,2846.523c-87.669,0.005-167.114-10.957-236.328-32.93
					c-127.038-40.327-212.663-115.332-254.495-222.935c-53.516-137.651-75.95-222.373-41.318-275.801
					c37.507-57.861,128.433-62.383,293.494-70.601c89.641-4.463,201.204-10.015,336.995-25.576
					c360.501-41.313,643.818-293.789,831.297-460.854c125.374-111.724,194.426-173.276,243.977-138.354
					c92.029,64.858,154.895,202.432,164.124,223.457c10.586,15.21,58.301,91.694,38.647,209.204
					c-25.847,154.556-153.359,308.74-378.997,458.267c-196.294,130.078-426.448,232.505-648.064,288.408
					C1906.879,2830.585,1789.232,2846.523,1683.532,2846.523z M2826.413,1657.963c-5.496,0-19.148,3.14-49.001,24.101
					c-34.788,24.424-80.042,64.751-132.439,111.445c-191.98,171.079-482.102,429.619-857.654,472.651
					c-137.317,15.737-249.732,21.333-340.059,25.83c-139.441,6.943-231.56,11.528-255.764,48.867
					c-23.152,35.713,1.55,118.765,45.759,232.485c36.333,93.452,111.836,158.96,224.409,194.697
					c291.465,92.515,793.13-32.583,1192.861-297.485c210.281-139.346,334.07-286.206,357.986-424.702
					c18.743-108.535-29.136-173.896-31.182-176.626c-1.16-1.543-2.202-3.325-2.957-5.098
					c-0.835-1.958-62.451-144.771-148.755-205.596C2829.591,1658.515,2828.72,1657.963,2826.413,1657.963z"/>
			</g>
		</g>
		<g>
			<g>
				<path style="fill:#48C75A;" d="M1115.123,2337.638c0,0-138.073-21.242-150.464,72.577
					c-12.391,93.819,139.843,56.645,138.073,129.222s-3.54,168.166,152.234,102.669s198.258-148.492,247.823-64.51
					c49.565,83.982,129.222,69.821,166.395-9.837c37.173-79.657,110.247-94.624,253.382-12.794
					c143.135,81.83,163.934-207.149,359.095-173.958c195.16,33.191,203.569-61.071,308.008-172.591
					c104.439-111.52,323.94,10.621,316.859-150.464s9.736-100.457,106.652-170.821c96.916-70.364,95.589-234.989-94.261-220.385
					C2729.069,1681.35,2256.878,2362.42,1115.123,2337.638z"/>
			</g>
		</g>
		<g style="opacity:0.6;">
			<g>
				<g>
					<path style="fill:#FFFFFF;" d="M3020.482,1820.087c-94.166,73.286-123.597,81.208-111.005,137.723
						c10.041-35.08,39.04-23.731,103.704-70.678c47.84-34.733,71.674-92.417,60.779-140.191
						C3062.394,1769.474,3041.422,1803.79,3020.482,1820.087z"/>
				</g>
			</g>
			<g>
				<g>
					<path style="fill:#FFFFFF;" d="M2906.139,2048.67c-33.667,112.769-233.616,11.101-334.062,126.073
						c-111.667,127.816-120.656,235.851-329.321,197.81c-151.013-27.531-204.391,138.303-280.365,196.507
						c109.254,12.719,143.772-217.9,319.269-188.054c195.16,33.191,203.569-61.071,308.008-172.591s323.94,10.621,316.859-150.464
						C2906.387,2054.762,2906.26,2051.689,2906.139,2048.67z"/>
				</g>
			</g>
		</g>
		<g style="opacity:0.3;">
			<g>
				<path style="fill:#6D184E;" d="M2437.434,2201.335c84.968-86.738,272.605-127.452,439-279.686
					c101.219-92.605,94.357-191.983,73.454-255.63c-9.729-0.3-20-0.117-30.97,0.727
					c-189.85,14.604-662.041,695.674-1803.796,670.891c0,0-138.073-21.242-150.464,72.577
					c-12.391,93.818,139.843,56.645,138.073,129.222c-1.77,72.577-3.541,168.166,152.234,102.669
					c155.774-65.496,198.258-148.492,247.823-64.51c49.565,83.982,129.222,69.821,166.396-9.837
					c37.173-79.657,110.247-94.624,253.382-12.794c143.135,81.83,163.934-207.148,359.095-173.958
					c43.108,7.331,77.082,8.425,105.013,4.507C2380.067,2342.558,2377.996,2262.012,2437.434,2201.335z"/>
			</g>
		</g>
		<g>
			<g>
				<path style="fill:#6D184E;" d="M1169.091,2684.174c-19.429,0-35.637-4.512-48.845-13.521
					c-40.308-27.49-38.899-85.278-37.766-131.709c0.383-15.718-12.378-22.363-50.916-34.346
					c-38.176-11.87-95.867-29.814-86.987-97.036c3.596-27.236,16.113-49.067,37.197-64.878
					c47.407-35.547,123.288-26.87,135.005-25.278c819.409,17.402,1283.369-326.299,1560.652-531.709
					c109.47-81.099,181.792-134.678,239.937-139.15c124.81-9.561,161.968,53.789,172.151,81.484
					c21.648,58.862-5.452,132.671-64.436,175.493c-30.159,21.895-53.037,31.865-69.741,39.146
					c-19.27,8.398-22.925,10.537-25.742,18.633c-5.208,14.951-4.944,47.725-2.832,95.762c1.514,34.473-6.108,60.342-23.306,79.092
					c-29.717,32.402-80.188,34.546-133.625,36.812c-61.038,2.593-124.153,5.273-165.378,49.297
					c-22.844,24.39-40.664,47.549-57.896,69.946c-58.696,76.279-105.054,136.533-268.298,108.765
					c-87.373-14.854-135.464,43.799-181.99,100.527c-46.096,56.196-98.342,119.878-183.762,71.05
					c-76.819-43.921-135.037-60.063-173.042-48.013c-21.931,6.963-38.916,23.901-51.929,51.782
					c-21.941,47.021-59.075,76.255-99.326,78.203c-39.824,1.982-76.375-21.738-102.871-66.631
					c-8.804-14.917-16.755-23.096-24.307-24.995c-14.255-3.574-40.086,12.051-72.791,31.846
					c-32.06,19.404-71.958,43.55-125.43,66.035C1225.695,2676.386,1194.616,2684.174,1169.091,2684.174z M1083.739,2355.824
					c-24.79,0-57.185,3.877-77.727,19.326c-12.168,9.155-19.126,21.489-21.269,37.715c-4.009,30.352,13.901,39.067,58.852,53.042
					c34.009,10.576,80.581,25.063,79.387,74.023c-0.894,36.616-2.004,82.183,20.093,97.251
					c17.793,12.139,53.77,7.378,104.038-13.755c50.735-21.328,89.226-44.624,120.154-63.345
					c42.388-25.654,73.02-44.175,103.662-36.475c18.848,4.746,34.517,18.633,49.307,43.691
					c18.484,31.313,41.902,47.778,66.023,46.758c24.961-1.206,49.099-21.719,64.568-54.863
					c17.817-38.184,43.516-62.832,76.382-73.267c49.922-15.874,117.122,0.977,205.41,51.45
					c53.22,30.425,81.975-0.186,132.329-61.567c48.813-59.512,109.551-133.584,220.107-114.775
					c139.216,23.691,171.24-17.954,229.395-93.535c16.992-22.08,36.25-47.109,60.435-72.93
					c52.539-56.104,127.285-59.277,193.232-62.08c44.805-1.899,87.124-3.696,105.486-23.716
					c9.556-10.42,13.706-26.753,12.686-49.932c-4.988-113.491,0.942-130.688,52.866-153.315
					c15.833-6.899,35.537-15.483,62.124-34.785c43.894-31.87,65.481-87.207,50.215-128.726
					c-15.027-40.854-61.543-60.459-131.021-55.068c-46.509,3.574-122.595,59.942-218.926,131.304
					c-136.938,101.45-324.48,240.386-582.878,352.319c-305.022,132.134-642.869,195.181-1003.984,187.319
					c-0.874-0.02-1.748-0.098-2.612-0.225l0,0C1105.839,2356.723,1095.668,2355.824,1083.739,2355.824z"/>
			</g>
		</g>
		<g>
			<g>
				<path style="fill:#DB2839;" d="M2593.52,1332.168c-24.617,9.854-45.775,25.385-63.153,45.27
					c-105.716,72.788-336.006,219.34-628.172,334.799c-291.138,118.027-558.944,170.854-685.686,191.114
					c-26.3-2.402-52.33,0.956-76.948,10.81c-112.301,44.952-152.672,207.974-90.17,364.12
					c62.502,156.145,186.64,216.922,316.51,201.333c288.985-39.516,547.279-122.721,758.527-212.184
					c214.632-81.009,458.998-199.009,695.432-369.809c104.757-78.328,152.673-207.975,90.171-364.12
					S2705.822,1287.215,2593.52,1332.168z"/>
			</g>
		</g>
		<g style="opacity:0.45;">
			<g>
				<path style="fill:#6D184E;" d="M2937.926,1728.702l21.707-83.198c0,0-634.509,56.467-711.611,520.726
					c-150.411,62.624-323.869,121.545-514.603,163.918l-63.623-74.491c0,0-113.017-10.068-164.795-77.777
					s-138.65-89.305-183.212,15.932c-18.862,44.545-43.154,69.889-64.911,84.357c-25.796-29.119-48.023-65.221-65.448-108.754
					c-38.321-95.735-37.913-194.008-6.023-266.116c-15.627,1.378-30.996,4.918-45.845,10.862
					c-112.301,44.952-152.672,207.974-90.17,364.119s186.64,216.922,316.51,201.333c288.985-39.516,547.278-122.721,758.527-212.185
					c214.633-81.009,458.998-199.009,695.433-369.809c17.583-13.147,33.518-27.771,47.645-43.691
					c-117.544,77.617-235.779,142.809-350.203,197.559c-24.504,11.725-48.321-17.095-32.314-39.044
					C2566.141,1901.167,2727.377,1726.286,2937.926,1728.702z M1363.674,2353.699c-18.63-7.321-23.152-31.583-8.013-44.678
					c23.001-19.896,44.85-40.634,55.079-55.465c15.586-22.599,38.501,30.725,107.127,67.621
					c22.476,12.084,16.556,45.937-8.725,49.407c-0.401,0.055-0.802,0.11-1.203,0.165
					C1457.936,2376.75,1408.786,2371.426,1363.674,2353.699z"/>
			</g>
		</g>
		<g>
			<g>
				<path style="fill:#6D184E;" d="M1326.964,2502.216c-132.327,0.01-241.214-78.594-296.379-216.406
					c-31.794-79.429-39.368-163.296-21.326-236.157c18.643-75.273,62.241-130.073,122.771-154.302
					c26.292-10.523,54.446-14.668,83.716-12.398c132.063-21.24,393.645-73.872,678.836-189.492
					c286.34-113.154,512.009-255.557,622.263-331.313c19.602-21.855,42.852-38.262,69.146-48.789c0.002,0,0.002,0,0.002,0
					c122.483-49.019,276.292,46.343,342.844,212.612c60.854,152.031,24.651,297.031-96.846,387.876
					c-208.059,150.307-443.496,275.532-700.037,372.397c-252.505,106.899-509.314,178.711-763.311,213.442
					C1354.53,2501.381,1340.614,2502.216,1326.964,2502.216z M1200.316,1922.865c-18.589,0-36.435,3.379-53.23,10.103
					c-48.096,19.253-83.076,64.15-98.499,126.421c-16.018,64.688-9.053,139.751,19.612,211.362
					c54.419,135.952,162.031,204.727,295.286,188.75c250.244-34.224,503.713-105.137,753.042-210.723
					c0.247-0.107,0.496-0.205,0.747-0.303c253.337-95.62,485.73-219.189,690.723-367.275
					c107.209-80.166,137.642-204.228,83.225-340.171c-58.25-145.527-188.43-230.786-290.173-190.054l-7.529-18.809l7.529,18.809
					c-21.074,8.432-39.722,21.821-55.427,39.79c-1.111,1.274-2.375,2.398-3.765,3.354
					c-110.916,76.367-340.537,221.689-632.217,336.958c-290.515,117.773-556.973,171.021-689.934,192.275
					c-1.668,0.269-3.362,0.317-5.037,0.171C1209.84,1923.085,1205.055,1922.865,1200.316,1922.865z"/>
			</g>
		</g>
		<g>
			<g>
				<path style="fill:#FCAF15;" d="M1086.8,2084.505c0,0-136.302,54.875-169.936,148.694s152.234-58.415,331.02-42.484
					s60.186-155.774,309.779-8.851s272.605,391.206,442.541,395.631c169.936,4.426,159.315-138.958,223.04-61.071
					c63.726,77.887,184.54,63.726,118.158-77.002c-66.381-140.728-24.34-450.507,276.588-622.212s462.012-134.532,476.174-159.315
					c14.161-24.782-53.105-152.234-267.295-155.774C2612.68,1498.581,2074.551,2045.561,1086.8,2084.505z"/>
			</g>
		</g>
		<g style="opacity:0.3;">
			<g>
				<path style="fill:#6D184E;" d="M2347.494,2453.314c-26.22,27.989-85.667,14.652-124.25-32.505
					c-63.726-77.887-48.878,80.569-218.814,76.144c-96.286-2.508-138.986-82.542-208.877-177.716
					c23.521-13.194,62.045-55.993,101.095-98.872c67.709-74.347,241.627,131.435,425.155-2.582l7.726-35.936
					c0,0-31.942,86.166-199.229,30.7s-229.788-92.676-283.332-30.7c-33.108,38.322-72.248,63.084-97.316,76.415
					c-47.379-59.719-106.343-121.598-191.99-172.014c-35.118-20.672-62.946-35.036-85.34-44.503
					c-36.962,6.815-74.719,12.962-113.267,18.376c-18.542,20.241-43.639,40.995-111.172,34.977
					c-105.24-9.378-212.913,39.5-276.847,62.176c-23.21,21.199-43.685,46.667-54.174,75.924
					c-33.633,93.819,152.234-58.415,331.02-42.484c178.787,15.932,60.186-155.774,309.779-8.851
					c249.593,146.923,272.605,391.206,442.541,395.631c169.936,4.425,159.315-138.958,223.04-61.071
					C2284.803,2591.663,2399.591,2580.977,2347.494,2453.314z"/>
			</g>
		</g>
		<g>
			<g>
				<g>
					<path style="fill:#F8CE36;" d="M1250.349,2190.899c108.463,8.735,105.233-52.842,145.971-66.325
						C1319.197,2107.28,1339.771,2182.052,1250.349,2190.899z"/>
				</g>
			</g>
			<g>
				<g>
					<path style="fill:#F8CE36;" d="M914.827,2258.917c17.222,26.628,148.238-61.052,286.799-68.814
						C1088.275,2183.205,973.497,2241.22,914.827,2258.917z"/>
				</g>
			</g>
			<g style="opacity:0.5;">
				<g>
					<path style="fill:#FFFFFF;" d="M2314.267,2192.845C2301.335,2194.757,2327.27,2192.252,2314.267,2192.845
						c-57.831,89.254-51.302,187.709-23.535,246.577c34.261,72.634,18.611,111.472-13.274,121.42
						c52.906,13.213,97.607-23.32,51.333-121.42C2300.664,2379.794,2292.016,2289.812,2314.267,2192.845z"/>
				</g>
			</g>
		</g>
		<g style="opacity:0.3;">
			<g>
				<path style="fill:#6D184E;" d="M2385.215,2027.86l-39.202,100.638c0,0,20.541-95.328,0-149.76
					c-20.541-54.432-13.087-106.74,55.133-77.443c68.22,29.297,75.298,23.621,75.298,23.621S2416.409,1985.632,2385.215,2027.86z"/>
			</g>
		</g>
		<g>
			<g>
				<path style="fill:#6D184E;" d="M2007.733,2597.851c-2.644,0-5.33-0.034-8.057-0.107
					c-98.232-2.554-151.897-76.465-214.033-162.041c-57.139-78.691-121.902-167.886-238.257-236.382
					c-63.288-37.251-106.345-55.908-131.631-57.026c-16.336-0.625-22.5,5.449-36.035,20.737
					c-20.696,23.379-49.045,55.356-133.635,47.861c-85.366-7.627-173.286,25.518-237.481,49.702
					c-56.57,21.309-87.737,33.057-106.731,14.36c-15.894-15.64-7.002-40.444-4.08-48.594
					c36.284-101.216,175.532-158.267,181.44-160.649c2.156-0.864,4.446-1.357,6.768-1.45
					c657.959-25.942,1110.503-276.484,1409.961-442.275c148.247-82.07,255.371-141.323,331.24-140.117
					c151.938,2.51,242.073,66.641,275.764,125.82c8.054,14.15,19.907,40.796,8.784,60.259c-9.199,16.099-27.83,18.291-64.944,22.661
					c-67.908,7.993-209.211,24.619-418.777,144.199c-278.75,159.048-335.583,453.345-268.306,595.972
					c44.646,94.648,8.135,130.967-9.636,142.192c-39.463,24.932-102.07,5.723-142.524-43.721
					c-12.292-15.02-17.517-15.786-17.566-15.791c-3.474,0.278-13.796,10.278-20.625,16.899
					C2143.141,2555.781,2099.73,2597.851,2007.733,2597.851z M1412.797,2101.855c31.528,0,77.651,16.938,155.142,62.554
					c123.63,72.773,193.97,169.648,250.491,247.49c60.408,83.198,104.055,143.306,182.302,145.347
					c80.496,1.938,115.159-31.47,140.447-55.981c15.625-15.142,30.4-29.395,51.155-28.252c20.063,1.162,35.437,16.953,46.589,30.586
					c29.141,35.615,70.576,47.095,89.534,35.117c17.766-11.221,15.708-45.957-5.376-90.649
					c-38.579-81.787-38.691-202.368-0.293-314.688c33.145-96.943,109.521-233.545,285.166-333.765
					c216.724-123.662,363.555-140.938,434.119-149.243c12.219-1.436,25.701-3.022,33.123-4.707
					c-1.528-6.919-6.877-20.772-22.183-38.511c-21.323-24.717-86.077-82.451-226.477-84.775
					c-65.164-1.27-168.201,56.025-310.947,135.059c-302.253,167.339-758.694,420.063-1424.277,447.163
					c-19.678,8.579-127.886,58.755-155.376,135.435c-0.356,0.991-0.667,1.904-0.938,2.749c13.914-2.993,38.599-12.295,59.324-20.103
					c67.852-25.562,160.813-60.532,255.361-52.148c64.206,5.747,81.455-13.745,99.705-34.355
					C1366.881,2116.415,1383.566,2101.855,1412.797,2101.855z M3075.692,1650.077L3075.692,1650.077L3075.692,1650.077z"/>
			</g>
		</g>
		<g>
			<g>
				<path style="fill:#F8CE36;" d="M2157.527,2345.825c0,0-61.775,114.899-153.096,100.899
					c-69.28-10.621,46.494,2.888,76.548-80.985C2115.707,2268.823,2175.407,2319.272,2157.527,2345.825z"/>
			</g>
		</g>
		<g>
			<g>
				<path style="fill:#48C75A;" d="M1171.768,1876.511c0,0-244.282,13.276-273.49,148.694
					c-29.208,135.417,98.244,108.865,196.488,103.554c98.244-5.31-92.933,183.212,77.002,199.143
					c169.936,15.932,204.454-238.972,308.008-116.831c103.555,122.141,265.524,108.865,345.182-2.655s146.038-39.829,302.698,10.621
					c156.659,50.45,262.869-82.313,212.419-244.282s220.385,47.794,297.387-119.486c77.002-167.28-87.623-196.488,108.865-236.317
					c196.488-39.829,281.456-53.098,249.593-160.639c-31.863-107.541-106.21-187.198-355.803-80.989
					C2390.525,1483.535,2164.829,1948.202,1171.768,1876.511z"/>
			</g>
		</g>
		<g style="opacity:0.3;">
			<g>
				<path style="fill:#6D184E;" d="M2881.146,1347.183c-1.623-5.478-3.39-10.86-5.251-16.173
					c-53.104-10.677-128.107,0.498-235.777,46.315c-249.593,106.21-475.289,570.877-1468.35,499.186
					c0,0-241.455,13.145-272.931,146.399c26.788-0.968,54.999-3.867,81.154-5.281c57.543-3.11,15.813,60.271,5.493,116.527
					c34.39,1.195,73.734-3.475,109.281-5.397c46.624-2.52,28.068,38.617,13.857,84.242
					c126.769-32.022,164.264-221.708,256.379-113.06c103.554,122.141,265.524,108.865,345.182-2.655
					c79.657-111.52,146.039-39.829,302.698,10.621c156.659,50.449,262.869-82.313,212.419-244.282
					c-50.449-161.97,220.385,47.794,297.387-119.486c77.002-167.28-87.623-196.488,108.865-236.317
					C2828.042,1467.993,2913.009,1454.724,2881.146,1347.183z"/>
			</g>
		</g>
		<g style="opacity:0.5;">
			<g>
				<g>
					<path style="fill:#FFFFFF;" d="M971.597,2116.862c-11.772,0.636-23.946,1.561-36.224,2.492
						c18.287,5.044,40.142,6.167,63.318,5.576"/>
				</g>
			</g>
			<g>
				<g>
					<path style="fill:#FFFFFF;" d="M1745.377,2201.274c-30.833,43.166-73.324,72.367-120.164,85.833
						c72.853,7.184,145.033-24.398,190.452-87.985c22.253-31.154,43.473-47.989,65.911-55.004
						C1829.632,2130.865,1789.405,2139.635,1745.377,2201.274z"/>
				</g>
			</g>
			<g>
				<g>
					<path style="fill:#FFFFFF;" d="M2990.963,1466.826c-14.734,60.765-105.352,76.582-269.217,109.797
						c-208.217,42.206-33.765,73.157-115.364,250.423c-81.599,177.266-344.194-21.342-315.139,126.619
						c26.549,135.199-15.626,244.8-119.013,266.515c125.943,7.751,202.964-112.132,158.552-254.718
						c-50.449-161.97,220.385,47.794,297.387-119.486s-87.623-196.488,108.865-236.317
						C2922.091,1572.147,3008.186,1558.164,2990.963,1466.826z"/>
				</g>
			</g>
		</g>
		<g>
			<g>
				<path style="fill:#6D184E;" d="M1186.811,2348.876c-5.513,0-11.152-0.259-16.931-0.801
					c-39.451-3.701-65.686-16.23-80.205-38.301c-22.644-34.429-7.82-80.117,4.094-116.831c4.685-14.438,11.626-35.825,10.525-43.535
					c-1.318-0.308-3.916-0.679-8.433-0.42c-10.83,0.586-21.87,1.421-33.557,2.31c-65.669,4.976-133.584,10.132-168.43-29.839
					c-20.003-22.944-25.039-55.825-15.398-100.527c32.097-148.818,281.589-164.072,292.195-164.648
					c0.852-0.044,1.709-0.034,2.556,0.024c739.7,53.359,1041.323-187.764,1261.58-363.852
					c71.436-57.109,133.132-106.431,197.38-133.775c127.544-54.272,221.323-65.688,286.704-34.888
					c46.228,21.772,76.877,62.69,96.455,128.765c11.067,37.354,9.565,66.943-4.59,90.464
					c-29.573,49.15-109.27,65.249-241.306,91.924l-19.099,3.862c-49.446,10.024-77.576,19.971-83.604,29.57
					c-2.903,4.619-0.579,14.561,3.452,30.4c8.735,34.312,21.934,86.167-14.333,164.961
					c-46.426,100.84-154.653,83.457-226.277,71.958c-26.621-4.272-66.851-10.747-73.733-2.803c-0.227,0.259-5.488,6.787,3.56,35.835
					c28.286,90.806,12.288,177.583-42.795,232.139c-48.564,48.11-119.702,61.753-195.176,37.451
					c-37.695-12.139-70.056-25.396-98.611-37.095c-91.833-37.622-129.841-53.193-181.392,18.965
					c-42.095,58.936-106.68,94.414-177.195,97.344c-75.256,3.11-146.228-30.029-199.922-93.359
					c-14.492-17.095-27.341-25.869-38.191-26.084c-0.137-0.005-0.276-0.005-0.413-0.005c-18.572,0-41.216,24.663-65.178,50.762
					C1321.398,2291.479,1268.698,2348.876,1186.811,2348.876z M1098.532,2108.398c17.192,0,29.961,5.283,38,15.737
					c15.583,20.264,6.404,48.555-4.226,81.313c-9.717,29.946-20.732,63.892-8.782,82.061c7.222,10.977,24.089,17.783,50.137,20.225
					c71.628,6.699,117.009-42.69,157.038-86.289c30.5-33.223,59.224-64.785,96.235-63.862c23.301,0.459,45.642,13.672,68.293,40.391
					c45.437,53.589,104.873,81.694,167.337,79.077c57.944-2.407,111.125-31.714,145.908-80.405
					c70.195-98.276,137.112-70.85,229.722-32.915c27.874,11.421,59.465,24.365,95.671,36.025
					c61.465,19.785,116.245,9.966,154.243-27.671c43.469-43.052,55.969-116.357,32.625-191.304
					c-6.809-21.86-13.75-53.359,4.504-74.424c21.65-24.971,62.952-18.345,110.776-10.664
					c84.692,13.599,151.956,18.647,183.047-48.897c30.269-65.757,20.068-105.83,11.873-138.027
					c-5.547-21.792-10.786-42.373,1.501-61.938c13.359-21.27,43.135-34.204,109.868-47.729l19.121-3.867
					c116.97-23.633,194.243-39.243,214.617-73.101c5.081-8.442,10.654-23.647,0.457-58.061
					c-16.057-54.199-39.849-87.129-74.873-103.628c-53.577-25.239-138.892-13.281-253.574,35.522
					c-59.146,25.166-118.833,72.886-187.944,128.14c-107.881,86.245-242.144,193.584-443.577,271.983
					c-235.51,91.665-511.887,124.599-844.836,100.732c-17.854,1.24-228.977,18.428-253.613,132.656
					c-6.665,30.903-4.536,52.891,6.331,65.356c21.499,24.668,81.707,20.098,134.829,16.064c11.389-0.864,23.164-1.758,34.434-2.368
					C1095.328,2108.442,1096.95,2108.398,1098.532,2108.398z"/>
			</g>
		</g>
		<g>
			<g>
				<g>
					<path style="fill:#F9A332;" d="M2058.619,1969.444c327.6-136.891,588.771-346.541,721.944-605.624
						c-147.992-319.932-469.368-543.259-843.6-549.283c-519.921-8.369-952.471,409.306-961.537,929.215
						c-1.562,89.568,9.387,176.328,31.113,258.712C1301.222,2151.633,1679.965,2127.67,2058.619,1969.444z"/>
				</g>
			</g>
			<g style="opacity:0.5;">
				<g>
					<path style="fill:#FFFFFF;" d="M2751.378,1306.045c-158.459-288.743-463.149-485.853-814.415-491.507
						c-6.077-0.098-12.141-0.133-18.193-0.115c-0.237-0.001-0.47-0.009-0.707-0.009c-2.437,0-4.858,0.038-7.263,0.103
						c-367.326,4.179-687.625,220.763-840.356,533.553c157.508-243.625,416.189-415.874,714.348-457.484
						c7.76,33.922,64.449,60.255,133.271,60.255c70.061,0,127.552-27.29,133.645-62.094
						C2339.734,924.69,2590.316,1081.091,2751.378,1306.045z"/>
				</g>
			</g>
			<g>
				<g style="opacity:0.3;">
					<g>
						<path style="fill:#6D184E;" d="M2296.984,1731.08c-281.65,117.691-563.35,161.098-810.468,114.229
							c-159.095-30.176-274.203-169.286-272.837-331.211c0.024-2.9,0.061-5.803,0.112-8.71
							c2.7-154.865,43.028-300.626,112.002-428.785c-0.001,0-0.001,0.001-0.002,0.002
							c-183.205,169.267-300.118,409.691-304.784,677.276c-0.961,55.152,2.82,109.24,10.941,161.897
							c9.588,62.169,51.844,114.505,110.834,136.344c31.995,11.844,64.826,21.805,98.334,30.102
							c248.807,49.059,533.164,6.034,817.503-112.78c265.632-110.997,487.573-269.84,633.033-464.075
							C2577.095,1593.795,2443.736,1669.758,2296.984,1731.08z"/>
					</g>
				</g>
			</g>
			<g>
				<g>
					<g>
						<path style="fill:#FCE69F;" d="M1457.232,1176.101c-9.8,30.822-26.733,53.365-37.512,49.938
							c-10.779-3.427-11.585-31.61-1.785-62.432s26.733-53.365,37.512-49.938c10.103,3.212,11.559,28.211,3.335,57.274
							L1457.232,1176.101z"/>
					</g>
				</g>
				<g>
					<g>
						<path style="fill:#FCE69F;" d="M1617.212,1195.951c-5.533,31.866-19.255,56.496-30.399,54.561
							c-11.144-1.935-15.761-29.749-10.229-61.615c5.533-31.866,19.255-56.496,30.399-54.561
							c10.445,1.813,15.275,26.384,11.065,56.294L1617.212,1195.951z"/>
					</g>
				</g>
				<g>
					<g>
						<path style="fill:#FCE69F;" d="M1823.742,1189.554c4.502,32.028-1.011,59.678-12.211,61.252
							c-11.201,1.574-24.121-23.485-28.623-55.513c-4.502-32.028,1.011-59.678,12.211-61.252
							c10.499-1.476,22.627,20.432,27.788,50.192L1823.742,1189.554z"/>
					</g>
				</g>
				<g>
					<g>
						<path style="fill:#FCE69F;" d="M1996.447,1123.322c17.113,27.445,23.296,54.953,13.698,60.937
							c-9.598,5.984-31.577-11.675-48.689-39.12s-23.296-54.953-13.698-60.937c8.996-5.609,28.972,9.491,45.767,34.596
							L1996.447,1123.322z"/>
					</g>
				</g>
				<g>
					<g>
						<path style="fill:#FCE69F;" d="M2128.914,1013.482c22.923,22.817,35.219,48.188,27.24,56.205
							c-7.979,8.016-33.407-4.162-56.33-26.979c-22.923-22.817-35.219-48.188-27.24-56.205c7.479-7.514,30.374,2.63,52.453,23.241
							L2128.914,1013.482z"/>
					</g>
				</g>
			</g>
			<g>
				<g>
					<g>
						<g style="opacity:0.3;">
							<g>
								<circle style="fill:#6D184E;" cx="1478.528" cy="1679.665" r="19.472"/>
							</g>
						</g>
					</g>
				</g>
				<g>
					<g>
						<g style="opacity:0.3;">
							<g>
								<circle style="fill:#6D184E;" cx="1792.573" cy="1494.677" r="19.472"/>
							</g>
						</g>
					</g>
				</g>
				<g style="opacity:0.39;">
					<g>
						<g style="opacity:0.3;">
							<g>
								<circle style="fill:#6D184E;" cx="1856.927" cy="1697.319" r="19.472"/>
							</g>
						</g>
					</g>
				</g>
				<g style="opacity:0.39;">
					<g>
						<g style="opacity:0.3;">
							<g>
								<circle style="fill:#6D184E;" cx="2044.839" cy="1458.971" r="19.472"/>
							</g>
						</g>
					</g>
				</g>
				<g>
					<g>
						<g style="opacity:0.3;">
							<g>
								<circle style="fill:#6D184E;" cx="2245.844" cy="1618.338" r="19.472"/>
							</g>
						</g>
					</g>
				</g>
				<g>
					<g>
						<g style="opacity:0.3;">
							<g>
								<circle style="fill:#6D184E;" cx="2271.892" cy="1323.705" r="19.472"/>
							</g>
						</g>
					</g>
				</g>
				<g>
					<g>
						<g style="opacity:0.3;">
							<g>
								<circle style="fill:#6D184E;" cx="2411.856" cy="1156.853" r="19.472"/>
							</g>
						</g>
					</g>
				</g>
				<g style="opacity:0.39;">
					<g>
						<g style="opacity:0.3;">
							<g>
								<circle style="fill:#6D184E;" cx="1482.433" cy="1477.429" r="19.472"/>
							</g>
						</g>
					</g>
				</g>
				<g>
					<g>
						<g style="opacity:0.3;">
							<g>
								<circle style="fill:#6D184E;" cx="2602.853" cy="1340.242" r="19.472"/>
							</g>
						</g>
					</g>
				</g>
				<g style="opacity:0.39;">
					<g>
						<g style="opacity:0.3;">
							<g>
								<circle style="fill:#6D184E;" cx="2476.579" cy="1552.879" r="19.472"/>
							</g>
						</g>
					</g>
				</g>
			</g>
			<g>
				<g>
					<path style="fill:#6D184E;" d="M1451.618,2122.49c-130.276,0-251.917-20.752-362.778-61.987
						c-64.732-24.087-111.585-81.699-122.278-150.371c-8.53-54.785-12.363-110.879-11.389-166.729
						c4.477-256.826,109.377-497.231,295.376-676.929c185.955-179.658,429.839-276.46,686.743-272.188
						c166.489,2.676,330.032,48.477,472.947,132.451c138.787,81.548,256.101,197.539,339.263,335.425
						c37.397,62.012,35.708,141.401-4.304,202.251c-142.395,216.572-377.107,397.676-678.767,523.721l0,0
						c-174.758,73.027-346.553,116.787-510.608,130.068C1520.524,2121.064,1485.768,2122.49,1451.618,2122.49z M1921.517,834.672
						c-503.167,0-917.039,404.868-925.837,909.434c-0.933,53.535,2.739,107.295,10.915,159.795
						c8.44,54.194,45.366,99.648,96.37,118.628c264.775,98.486,601.387,72.988,947.844-71.777l0,0
						c294.182-122.925,522.59-298.794,660.535-508.594c31.492-47.9,32.852-110.337,3.459-159.067
						c-166.177-275.542-457.08-443.13-778.167-448.296C1931.596,834.716,1926.542,834.672,1921.517,834.672z"/>
				</g>
			</g>
		</g>
		<g>
			<g>
				<g>
					<path style="fill:#FCAF15;" d="M2503.084,2719.842c-11.677,62.954-72.178,104.522-135.132,92.845
						s-104.522-72.178-92.845-135.132c11.677-62.954,46.44,5.552,111.075-18.19
						C2462.291,2631.409,2514.761,2656.888,2503.084,2719.842z"/>
				</g>
			</g>
			<g style="opacity:0.5;">
				<g>
					<g>
						<path style="fill:#FFFFFF;" d="M2430.782,2648.789c17.967,11.519,26.373,32.47,20.982,61.533
							c-10.038,54.117-56.175,92.325-108.914,94.597c7.906,3.435,16.265,6.127,25.102,7.767
							c62.954,11.677,123.455-29.89,135.132-92.845C2512.294,2670.188,2481.508,2643.985,2430.782,2648.789z"/>
					</g>
				</g>
			</g>
			<g style="opacity:0.3;">
				<g>
					<path style="fill:#6D184E;" d="M2380.766,2743.603c-44.796-8.309-76.628-52.239-88.288-93.283
						c-8.069,1.073-13.803,8.004-17.371,27.235c-11.677,62.954,29.891,123.455,92.845,135.132
						c62.954,11.677,123.455-29.89,135.132-92.845c2.743-14.789,1.828-27.422-1.983-37.868
						C2476.301,2720.06,2428.238,2752.408,2380.766,2743.603z"/>
				</g>
			</g>
			<g>
				<g>
					<path style="fill:#6D184E;" d="M2389.386,2834.926c-8.347,0-16.748-0.767-25.132-2.324
						c-35.764-6.631-66.807-26.797-87.41-56.782c-20.601-29.98-28.291-66.191-21.658-101.963
						c2.585-13.936,7.434-31.011,22.092-39.443c15.19-8.75,31.235-3.008,45.391,2.056c16.719,5.972,34.001,12.148,56.528,3.882
						c50.471-18.54,94.683-16.284,121.304,6.187c20.51,17.314,28.501,44.658,22.502,77.002
						c-6.636,35.767-26.802,66.812-56.787,87.407C2443.261,2826.723,2416.649,2834.926,2389.386,2834.926z M2297.719,2670.888
						c-0.742,1.924-1.729,5.151-2.693,10.361c-4.661,25.127,0.742,50.562,15.215,71.626c14.47,21.064,36.279,35.229,61.404,39.893
						c25.132,4.648,50.566-0.737,71.631-15.215c21.064-14.468,35.229-36.279,39.89-61.406c2.285-12.314,2.612-29.014-8.799-38.647
						c-14.734-12.437-45.847-12.095-81.199,0.879c-36.321,13.345-65.098,3.047-84.136-3.76
						C2305.421,2673.329,2300.851,2671.694,2297.719,2670.888z"/>
				</g>
			</g>
		</g>
		<g>
			<g>
				<path style="fill:#E5525F;" d="M2653.854,1921.34c8.18,3.757,17.738,2.805,25.5-1.753
					c32.056-18.823,134.445-81.057,151.685-117.772C2850.25,1760.904,2595.976,1894.755,2653.854,1921.34z"/>
			</g>
		</g>
	</g>
	<g style="opacity:0.3;">
		<g>
			<ellipse style="fill:#6D184E;" cx="2000" cy="3411.042" rx="927.534" ry="108.3"/>
		</g>
	</g>
</g>
</svg>
