<?xml version="1.0" encoding="utf-8"?>
<!-- Generator: Adobe Illustrator 27.5.0, SVG Export Plug-In . SVG Version: 6.00 Build 0)  -->
<svg version="1.1" id="Layer_1" xmlns="http://www.w3.org/2000/svg" xmlns:xlink="http://www.w3.org/1999/xlink" x="0px" y="0px"
	 viewBox="0 0 4000 4000" style="enable-background:new 0 0 4000 4000;" xml:space="preserve">
<g>
	<g>
		<rect style="fill:#FCE0DD;" width="4000" height="4000"/>
	</g>
	<g>
		<g style="opacity:0.2;">
			<ellipse style="fill:#3D0312;" cx="1994.25" cy="3304.795" rx="745.742" ry="103.31"/>
		</g>
		<g>
			<g>
				<path style="fill:#FF9D3F;" d="M2181.85,2661.941c-4.704,0.995-8.695,1.876-12.214,2.681c-4.229,0.917-8.259,1.561-12.488,2.48
					c-604.979,122.418-1059.924,30.517-1064.458-356.997l1726.101-250.714l193.18-27.945
					C3191.25,2409.519,2645.079,2566.788,2181.85,2661.941z"/>
			</g>
			<g>
				<path style="fill:#EF6F2E;" d="M2181.85,2661.941c84.753-20.346,361.804-107.636,439.906-388.744
					c29.324-105.574,105.006-173.578,197.036-213.806l193.18-27.945C3191.25,2409.519,2645.079,2566.788,2181.85,2661.941z"/>
			</g>
			<g>
				<path style="fill:#4C0016;" d="M1695.637,2733.348c-231.26,0-396.235-43.315-499.59-130.378
					c-82.813-69.758-125.517-168.169-126.924-292.5l47.344-0.537c1.265,111.482,37.275,195.491,110.088,256.824
					c76.767,64.668,196.572,103.433,356.094,115.22c151.328,11.184,343.335-1.677,570.693-38.218
					c324.795-52.205,734.756-157.766,843.315-364.207c37.749-71.785,35.737-149.58-6.152-237.825l42.773-20.308
					c48.047,101.214,49.824,195.476,5.288,280.171c-117.666,223.76-542.251,335-877.715,388.916
					C1983.328,2719.039,1828.528,2733.348,1695.637,2733.348z"/>
			</g>
			<g>
				<path style="fill:#C34F59;" d="M2517.024,2335.874c-128.744,35.641-267.383,64.109-398.533,87.737
					c-490.885,87.902-1052.813,76.542-1056.08-217.822l1713.055-294.334l226.919-38.927
					C3128.061,2099.202,2857.425,2241.868,2517.024,2335.874z"/>
			</g>
			<g>
				<path style="fill:#AF3A3A;" d="M2517.024,2335.874c0,0,194.935-71.74,226.599-325.494c4.712-37.462,15.984-70.381,31.844-98.925
					l226.919-38.927C3128.061,2099.202,2857.425,2241.868,2517.024,2335.874z"/>
			</g>
			<g>
				<path style="fill:#4C0016;" d="M1622.332,2495.308c-25.767,0-50.928-0.481-75.434-1.45
					c-198.213-7.825-340.962-46.736-424.287-115.652c-54.941-45.447-83.198-103.33-83.975-172.043l47.344-0.537
					c0.625,54.907,22.476,99.424,66.811,136.094c169.141,139.9,607.583,121.975,961.509,58.54
					c231.187-41.436,411.279-85.701,550.571-135.327c180.781-64.412,291.836-137.849,330.063-218.269
					c23.916-50.305,19.595-103.54-13.208-162.749l41.416-22.949c40.176,72.517,45.073,141.833,14.556,206.028
					c-76.533,160.999-367.3,281.707-915.049,379.873C1944.5,2478.795,1773.25,2495.308,1622.332,2495.308z"/>
			</g>
			<g>
				<path style="fill:#FFC614;" d="M2729.806,2057.804c-157.385,63.311-367.886,119.792-611.615,158.485
					c-146.287,85.605-295.307,184.532-295.307,184.532c-179.753-96.483-364.176-132.415-429.266-142.68
					c-14.507-2.545-29.184-3.117-44.146-2.429c-57.167,2.812-222.711,5.92-287.059-49.924
					c-78.674-67.899,4.934-176.067,4.934-176.067l1900.941-303.686C3119.624,1816.604,3005.593,1947.379,2729.806,2057.804z"/>
			</g>
			<g>
				<path style="fill:#ED900A;" d="M2729.806,2057.804l-27.516-4.842c0,0,64.033-43.535-5.92-105.534
					c-31.425-27.798,15.663-116.518,87.724-191.967l184.192-29.426C3119.624,1816.604,3005.593,1947.379,2729.806,2057.804z"/>
			</g>
			<g>
				<path style="fill:#4C0016;" d="M1822.903,2424.495c-3.838,0-7.681-0.93-11.186-2.808
					c-174.99-93.818-353.218-129.348-421.724-140.271c-12.847-2.043-25.713-2.708-39.321-2.017
					c-68.081,3.43-233.975,4.861-303.858-55.603c-75.483-65.317-31.763-165.007,1.9-208.591l37.471,28.94
					c-2.808,3.674-68.877,91.499-8.384,143.845c46.484,40.22,170.195,49.153,270.488,44.119c16.709-0.847,33.247,0.012,49.155,2.546
					c69.248,11.04,246.89,46.406,424.136,138.689c38.164-25.032,163.052-106.248,284.731-177.561
					c2.549-1.494,5.352-2.498,8.267-2.959c245.654-38.914,472.173-99.224,637.827-169.824
					c153.013-65.215,247.241-136.038,258.525-194.312c2.129-10.989,8.604-44.431-54.761-82.38l24.326-40.62
					c75.898,45.454,83.721,96.872,76.919,132.002c-29.756,153.684-412.305,318.45-931.001,401.199
					c-142.876,83.936-288.955,180.686-290.425,181.663C1832.039,2423.172,1827.478,2424.495,1822.903,2424.495z"/>
			</g>
			<g>
				<path style="fill:#EF1624;" d="M2549.939,2001.696c-162.844,53.486-347.237,95.343-516.295,122.107
					c-475.408,75.219-1083.346,80.205-1000.671-211.845l1606.145-277.254l344.707-59.445
					C3108.262,1745.488,2870.488,1896.031,2549.939,2001.696z"/>
			</g>
			<g>
				<path style="fill:#B21222;" d="M2549.939,2001.696l-0.275-0.199c0,0,137.324-73.233,73.943-214.319
					c-20.65-45.564-11.202-100.557,15.511-152.473l344.707-59.445C3108.262,1745.488,2870.488,1896.031,2549.939,2001.696z"/>
			</g>
			<g>
				<path style="fill:#4C0016;" d="M1528.474,2190.919c-26.396,0-51.973-0.466-76.606-1.404
					c-208.096-7.927-345.884-48.306-409.541-120.017c-39.517-44.512-50.322-99.656-32.119-163.901l45.557,12.908
					c-13.701,48.362-6.514,87.471,21.973,119.56c122.505,138.005,589.565,119.797,952.295,62.271
					c409.194-64.895,882.515-214.465,954.776-389.507c16.709-40.476,10.151-80.261-20.044-121.631l38.242-27.915
					c40.166,55.024,48.765,111.416,25.566,167.612c-38.721,93.799-165.898,182.041-377.998,262.273
					c-172.3,65.176-390.044,120.554-613.13,155.935C1856.858,2175.743,1679.324,2190.916,1528.474,2190.919z"/>
			</g>
			<g>
				<path style="fill:#77C41E;" d="M3055.629,1543.854c-43.408,163.494-228.424,69.069-251.058,154.124
					c-22.673,84.82-159.687,211.729-259.23,142.544c-99.741-68.909-143.143-52.98-195.354,40.205
					c-51.935,93.384-151.87,117.614-260.953,52.627c-108.807-64.787-182.148,54.383-290.738,109.655
					c-108.788,55.547-149.235-39.367-238.557-61.32c-89.286-21.715-155.875,173.197-271.428,43.362
					c-115.79-129.795-247.766,22.564-308.155-99.794c-60.152-122.396,91.095-211.954,91.095-211.954l442.018-139.656
					c0,0,40.252-5.215,106.618-14.359c267.547-35.693,959.524-130.924,1139.956-176.28c10.99-2.727,19.808-5.353,26.731-7.674
					C2938.315,1323.866,3099.312,1380.559,3055.629,1543.854z"/>
			</g>
			<g>
				<path style="fill:#69AA0C;" d="M2879.681,1556.403c-123.293,5.84-120.54,30.683-169.884,114.415s-97.968,83.72-162.054,41.69
					c-64.125-42.266-166.932-19.277-226.478,20.38c-59.308,39.62-78.951,143.403-151.091,113.357
					c-72.378-30.007-187.525-108.612-284.752-23.308c-97.19,85.541-171.359,134.099-224.112,79.32
					c-52.755-54.78-118.747-60.038-118.747-60.038c-228.299,144.411-176.884,81.255-239.521,46.773
					c-62.913-34.68-203.892,18.716-235.211-19.068c-31.32-37.782,63.266-128.984,63.266-128.984l488.793-181.65
					c267.547-35.693,959.524-130.924,1139.956-176.28c56.271,12.89,102.521,25.437,126.801,35.9
					C2986.753,1462.721,3002.738,1550.601,2879.681,1556.403z"/>
			</g>
			<g>
				<path style="fill:#4C0016;" d="M1367.254,2094.053c-29.424,0.002-61.719-13.901-96.699-53.157
					c-51.104-57.341-103.291-51.113-158.535-44.509c-54.512,6.516-116.284,13.887-153.027-60.759
					c-55.298-112.351,41.284-207.913,100.083-242.747l24.131,40.737l-12.066-20.369l12.104,20.349
					c-5.396,3.22-131.523,80.042-81.772,181.118c21.011,42.685,48.896,41.348,104.932,34.656
					c58.794-7.031,131.963-15.769,199.502,60.02c52.969,59.441,84.487,39.348,140.171-4.482
					c34.229-26.941,73.052-57.471,119.317-46.14c35.254,8.63,63.433,27.119,88.291,43.433
					c43.818,28.755,75.479,49.541,133.877,19.807c30.811-15.684,59.287-37.354,86.821-58.308
					c67.324-51.228,136.934-104.212,226.807-50.671c50.439,30.044,99.37,39.946,141.489,28.616
					c35.718-9.6,65.708-34.619,86.743-72.354c22.31-40.027,51.074-82.324,95.269-92.583c36.274-8.418,77.617,5.281,134.087,44.426
					c25.747,17.847,56.338,20.44,90.918,7.717c62.432-22.961,119.673-90.642,132.002-137.021
					c13.643-51.309,65.859-56.985,111.929-61.992c60.742-6.604,118.115-12.839,139.224-92.061
					c13.784-51.746,5.703-92.087-24.009-119.905c-43.55-40.764-129.844-48.862-214.756-20.124
					c-152.275,51.531-1231.865,193.33-1277.749,199.341l-6.152-46.948c11.191-1.467,1120.825-147.195,1268.726-197.246
					c102.539-34.695,205.493-22.759,262.29,30.41c42.222,39.524,55.503,98.711,37.402,166.66
					c-29.463,110.598-116.387,120.046-179.858,126.946c-45.884,4.988-66.494,9.055-71.284,27.085
					c-15.576,58.596-81.719,139.983-161.421,169.294c-49.214,18.096-95.63,13.516-134.233-13.24
					c-43.931-30.457-74.541-42.285-96.411-37.217c-20.547,4.768-40.474,26.206-64.614,69.509
					c-27.402,49.172-67.451,82.034-115.811,95.029c-54.771,14.719-116.323,3.079-178.008-33.664
					c-59.522-35.444-102.695-6.514-173.901,47.673c-29.209,22.224-59.404,45.205-94.014,62.825
					c-82.876,42.2-135.186,7.869-181.338-22.417c-23.774-15.598-46.23-30.334-73.574-37.029
					c-23.877-5.825-49.321,14.177-78.77,37.356C1445.613,2065.538,1409.378,2094.053,1367.254,2094.053z"/>
			</g>
			<g>
				<path style="fill:#FF9D3F;" d="M2891.101,1275.008c7.442,84.628-23.167,169.985-85.363,228.056
					c-131.94,123.669-399.871,216.309-826.57,284.476s-710.156,63.615-874.06-12.791
					c-77.193-35.802-132.872-107.375-152.404-190.071c-113.732-482.139,306.091-865.731,842.071-951.357
					c186.324-29.766,370.536-21.028,533.31,23.955c0,0,0.237-0.038,0.275,0.199
					C2633.777,741.661,2863.747,953.132,2891.101,1275.008z"/>
			</g>
			<g>
				<g>
					<path style="fill:#EF6F2E;" d="M1852.198,908.411c0.342,21.199-8.788,27.226-20.167,27.41
						c-11.379,0.184-20.698-5.546-21.04-26.745s8.423-49.841,19.802-50.024C1842.173,858.868,1851.856,887.212,1852.198,908.411z"/>
				</g>
				<g>
					<path style="fill:#EF6F2E;" d="M1447.642,1073.393c-9.352,19.028-20.225,20.235-30.439,15.215
						c-10.214-5.02-15.9-14.366-6.548-33.394c9.352-19.028,30.201-40.533,40.415-35.513
						C1461.284,1024.721,1456.994,1054.365,1447.642,1073.393z"/>
				</g>
				<g>
					<path style="fill:#EF6F2E;" d="M1708.189,1069.06c-6.922,20.04-17.562,22.585-28.319,18.869
						c-10.757-3.716-17.557-12.285-10.635-32.325c6.922-20.04,24.946-43.963,35.703-40.247
						C1715.695,1019.073,1715.111,1049.02,1708.189,1069.06z"/>
				</g>
				<g>
					<path style="fill:#EF6F2E;" d="M2025.455,820.491c8.079,19.602,1.79,28.554-8.732,32.89
						c-10.522,4.337-21.292,2.417-29.371-17.186c-8.079-19.602-10.408-49.464,0.113-53.801
						C1997.988,778.058,2017.376,800.889,2025.455,820.491z"/>
				</g>
				<g>
					<path style="fill:#EF6F2E;" d="M2054.277,1000.899c8.079,19.602,1.79,28.553-8.732,32.89s-21.292,2.417-29.371-17.186
						c-8.079-19.602-10.409-49.464,0.113-53.801C2026.809,958.466,2046.197,981.297,2054.277,1000.899z"/>
				</g>
				<g>
					<path style="fill:#EF6F2E;" d="M2236.779,852.953c15.988,13.926,14.361,24.744,6.886,33.326
						c-7.475,8.581-17.968,11.677-33.955-2.249c-15.987-13.926-31.415-39.599-23.94-48.181
						C2193.244,827.266,2220.792,839.027,2236.779,852.953z"/>
				</g>
				<g>
					<path style="fill:#EF6F2E;" d="M1592.85,938.273c-8.845,19.269-19.683,20.763-30.025,16.015
						c-10.343-4.748-16.275-13.94-7.429-33.209c8.845-19.269,29.118-41.318,39.461-36.57
						C1605.199,889.258,1601.696,919.005,1592.85,938.273z"/>
				</g>
			</g>
			<g style="opacity:0.6;">
				<path style="fill:#FFFFFF;" d="M2871.577,1148.067c-88.123-206.175-277.85-345.309-511.571-409.832
					c-0.038-0.236-0.275-0.198-0.275-0.198c-162.772-44.984-346.984-53.723-533.308-23.956
					c-531.003,84.831-948.178,462.165-844.901,938.197c-11.421-21.271-20.187-44.181-25.709-68.096
					c-113.732-482.139,306.091-865.731,842.071-951.357c186.324-29.766,370.536-21.028,533.31,23.955c0,0,0.237-0.038,0.275,0.199
					C2594.693,729.672,2802.031,896.868,2871.577,1148.067z"/>
			</g>
			<g>
				<path style="fill:#EF6F2E;" d="M2894.208,1274.512c7.442,84.628-23.167,169.985-85.363,228.056
					c-131.94,123.669-399.871,216.309-826.57,284.476c-426.698,68.168-710.156,63.615-874.06-12.791
					c-77.193-35.802-132.872-107.375-152.404-190.071c738.509,450.154,2444.915-386.455,1375.655-927.203
					C2636.884,741.165,2866.854,952.636,2894.208,1274.512z"/>
			</g>
			<g>
				<path style="fill:#4C0016;" d="M1474.08,1858.436c-161.709,0.005-286.123-20.889-375.869-62.725
					c-82.095-38.076-143.955-115.125-165.439-206.086c-44.907-190.376-10.942-377.112,98.223-540.027
					c74.409-111.042,184.043-209.993,317.056-286.152c131.108-75.068,285.366-128.32,446.099-153.999
					c160.747-25.681,323.936-23.14,471.914,7.358c150.127,30.938,285.127,90.82,390.4,173.176
					c154.424,120.801,244.79,287.659,261.333,482.529c8.159,93.027-26.528,185.493-92.793,247.361
					c-135.439,126.951-409.883,222-838.989,290.552C1785.735,1842.418,1615.613,1858.431,1474.08,1858.436z M2012.488,639.302
					c-69.18,0-139.844,5.554-210.869,16.902c-315.571,50.413-588.95,207.329-731.289,419.751
					c-101.65,151.702-133.281,325.564-91.475,502.793c18.169,76.934,70.254,141.992,139.321,174.028
					c159.487,74.343,440.889,77.9,860.366,10.889c419.463-67.012,685.762-158.069,814.111-278.371
					c55.752-52.051,84.883-130.059,77.969-208.708c0-0.022-0.005-0.046-0.005-0.071c-15.4-181.414-99.541-336.758-243.33-449.238
					C2471.223,705.186,2250.72,639.302,2012.488,639.302z"/>
			</g>
			<g>
				<g>
					<path style="fill:#FFFFFF;" d="M1835.059,891.562c0.342,21.199-8.788,27.226-20.167,27.41
						c-11.379,0.184-20.698-5.546-21.04-26.745s8.423-49.841,19.802-50.024C1825.034,842.018,1834.718,870.362,1835.059,891.562z"/>
				</g>
				<g>
					<path style="fill:#FFFFFF;" d="M1430.503,1056.543c-9.352,19.028-20.225,20.235-30.439,15.215
						c-10.214-5.02-15.9-14.365-6.548-33.394c9.352-19.028,30.201-40.533,40.415-35.513
						C1444.145,1007.872,1439.855,1037.515,1430.503,1056.543z"/>
				</g>
				<g>
					<path style="fill:#FFFFFF;" d="M1691.05,1052.21c-6.922,20.04-17.562,22.585-28.319,18.869
						c-10.757-3.716-17.557-12.285-10.635-32.325c6.922-20.04,24.947-43.963,35.703-40.247
						C1698.557,1002.223,1697.973,1032.17,1691.05,1052.21z"/>
				</g>
				<g>
					<path style="fill:#FFFFFF;" d="M2008.317,803.642c8.079,19.602,1.79,28.553-8.732,32.89
						c-10.522,4.337-21.292,2.417-29.371-17.186c-8.079-19.603-10.408-49.464,0.113-53.801
						C1980.849,761.209,2000.237,784.039,2008.317,803.642z"/>
				</g>
				<g>
					<path style="fill:#FFFFFF;" d="M2037.138,984.05c8.079,19.602,1.79,28.553-8.732,32.89
						c-10.522,4.337-21.292,2.417-29.371-17.186c-8.079-19.602-10.408-49.464,0.113-53.801
						C2009.67,941.617,2029.059,964.447,2037.138,984.05z"/>
				</g>
				<g>
					<path style="fill:#FFFFFF;" d="M2219.64,836.103c15.987,13.926,14.361,24.744,6.886,33.326
						c-7.475,8.582-17.968,11.677-33.955-2.249c-15.988-13.926-31.416-39.599-23.941-48.181
						C2176.106,810.417,2203.653,822.177,2219.64,836.103z"/>
				</g>
				<g>
					<path style="fill:#FFFFFF;" d="M1575.711,921.424c-8.845,19.269-19.683,20.763-30.025,16.015
						c-10.343-4.748-16.275-13.94-7.429-33.209c8.845-19.269,29.118-41.318,39.461-36.57
						C1588.061,872.408,1584.557,902.155,1575.711,921.424z"/>
				</g>
			</g>
		</g>
	</g>
</g>
</svg>
