<?xml version="1.0" encoding="utf-8"?>
<!-- Generator: Moho 14.1 build 20231027 -->
<!DOCTYPE svg PUBLIC "-//W3C//DTD SVG 1.1//EN" "http://www.w3.org/Graphics/SVG/1.1/DTD/svg11.dtd">
<svg version="1.1" id="Frame_0" xmlns="http://www.w3.org/2000/svg" xmlns:xlink="http://www.w3.org/1999/xlink" width="1024px" height="1792px">
<g id="Background">
<path id="S1" fill="#fef7df" fill-rule="evenodd" stroke="#000000" stroke-width="10" stroke-linecap="round" stroke-linejoin="round" d="M -338.518 -303.379 C -338.344 -303.379 1404.699 -303.379 1404.873 -303.379 C 1404.873 -303.147 1404.873 2014.525 1404.873 2014.756 C 1404.699 2014.756 -338.344 2014.756 -338.518 2014.756 C -338.518 2014.525 -338.518 -303.147 -338.518 -303.379 Z"/>
</g>
<g id="Remy">
<g id="Tail">
<g id="Tail">
<clipPath id="2034abc1-733d-4f2f-a8e7-ccc595e418ca">
<path id="S1" fill="#ffffff" fill-rule="evenodd" stroke="none" d="M 790.057 1443.875 C 818.184 1440.831 856.820 1435.940 882.053 1423.149 C 919.317 1404.260 961.919 1364.263 985.171 1329.554 C 997.797 1310.707 1009.366 1281.595 1012.826 1259.175 C 1016.202 1237.304 1019.238 1204.571 1007.885 1185.575 C 999.598 1171.710 979.111 1158.220 963.176 1155.571 C 949.781 1153.344 929.645 1157.834 919.278 1166.604 C 892.298 1189.425 900.484 1246.051 882.833 1278.615 C 870.262 1301.806 851.449 1329.936 830.946 1344.528 C 801.318 1365.615 750.986 1373.495 715.537 1381.614 C 674.305 1391.057 577.382 1358.559 575.853 1400.831 C 574.949 1425.791 624.379 1434.832 648.401 1441.669 C 689.279 1453.305 747.802 1448.447 790.057 1443.875 Z"/>
</clipPath>
<path id="S1" fill="#ffffff" fill-rule="evenodd" stroke="#000000" stroke-width="10" stroke-linecap="round" stroke-linejoin="round" d="M 790.057 1443.875 C 818.184 1440.831 856.820 1435.940 882.053 1423.149 C 919.317 1404.260 961.919 1364.263 985.171 1329.554 C 997.797 1310.707 1009.366 1281.595 1012.826 1259.175 C 1016.202 1237.304 1019.238 1204.571 1007.885 1185.575 C 999.598 1171.710 979.111 1158.220 963.176 1155.571 C 949.781 1153.344 929.645 1157.834 919.278 1166.604 C 892.298 1189.425 900.484 1246.051 882.833 1278.615 C 870.262 1301.806 851.449 1329.936 830.946 1344.528 C 801.318 1365.615 750.986 1373.495 715.537 1381.614 C 674.305 1391.057 577.382 1358.559 575.853 1400.831 C 574.949 1425.791 624.379 1434.832 648.401 1441.669 C 689.279 1453.305 747.802 1448.447 790.057 1443.875 Z"/>
</g>
<g id="Tail_Mask">
<path id="S1" fill="#a8b7c9" fill-rule="evenodd" stroke="none" d="M 842.328 1471.374 C 977.474 1471.374 1024.926 1410.069 1024.926 1357.609 C 1024.926 1305.149 977.474 1243.844 842.328 1243.844 C 707.182 1243.844 659.730 1305.149 659.730 1357.609 C 659.730 1410.069 707.182 1471.375 842.328 1471.374 Z" clip-path="url(#2034abc1-733d-4f2f-a8e7-ccc595e418ca)"/>
</g>
</g>
<g id="Mid_Body">
<g id="Hand_Left">
<path id="S2" fill="#ffffff" fill-rule="evenodd" stroke="#000000" stroke-width="10" stroke-linecap="round" stroke-linejoin="round" d="M 389.923 1094.670 C 350.980 1058.227 269.024 1137.737 232.358 1177.011 C 209.277 1201.733 180.958 1237.249 164.456 1266.683 C 154.241 1284.904 138.518 1310.297 138.226 1331.184 C 138.031 1345.039 141.578 1367.221 153.106 1374.909 C 178.962 1392.153 228.186 1370.565 254.611 1354.205 C 273.350 1342.604 287.987 1315.044 301.231 1297.427 C 316.511 1277.102 337.917 1250.320 349.130 1227.498 C 367.510 1190.084 420.359 1123.153 389.923 1094.670 Z"/>
<path id="S3" fill="#bca99b" fill-rule="evenodd" stroke="#b8a595" stroke-width="10" stroke-linecap="round" stroke-linejoin="round" d="M 181.702 1329.366 C 190.934 1329.366 197.606 1336.191 197.606 1343.887 C 197.606 1351.583 190.933 1358.408 181.702 1358.408 C 172.471 1358.408 165.798 1351.583 165.798 1343.887 C 165.798 1336.191 172.471 1329.366 181.702 1329.366 Z"/>
</g>
<g id="Hand_Right">
<path id="S2" fill="#ffffff" fill-rule="evenodd" stroke="#000000" stroke-width="10" stroke-linecap="round" stroke-linejoin="round" d="M 642.176 1092.645 C 700.299 1030.517 818.237 1195.396 867.643 1264.658 C 879.774 1281.664 893.581 1308.272 893.873 1329.159 C 894.068 1343.014 890.521 1365.196 878.993 1372.884 C 853.137 1390.128 803.913 1368.540 777.488 1352.181 C 758.749 1340.579 744.112 1313.019 730.868 1295.402 C 715.588 1275.077 694.182 1248.295 682.969 1225.473 C 664.589 1188.059 613.698 1123.086 642.176 1092.645 Z"/>
<path id="S3" fill="#bca99b" fill-rule="evenodd" stroke="#b8a595" stroke-width="10" stroke-linecap="round" stroke-linejoin="round" d="M 850.060 1330.311 C 856.212 1330.311 861.956 1335.837 861.956 1344.085 C 861.956 1352.333 856.212 1357.859 850.060 1357.859 C 843.908 1357.859 838.164 1352.333 838.164 1344.085 C 838.164 1335.837 843.908 1330.311 850.060 1330.311 Z"/>
</g>
<g id="Body">
<path id="S1" fill="#ffffff" fill-rule="evenodd" stroke="none" d="M 541.577 1041.455 C 582.367 1043.371 640.712 1055.361 671.432 1082.264 C 701.987 1109.023 714.904 1166.736 728.763 1204.915 C 743.030 1244.218 756.066 1294.750 761.895 1333.855 C 768.126 1375.655 772.843 1433.166 772.154 1473.630 C 770.955 1544.167 769.028 1662.155 709.235 1698.841 C 691.104 1709.965 656.940 1707.034 638.362 1696.673 C 602.578 1676.716 596.802 1612.486 571.393 1577.644 C 549.109 1571.728 504.153 1569.670 469.659 1573.936 C 449.252 1619.127 436.733 1675.458 399.411 1694.307 C 392.280 1697.908 381.614 1698.848 372.175 1698.872 C 360.140 1698.905 348.727 1699.190 340.123 1694.772 C 277.424 1662.579 281.395 1501.349 282.973 1466.894 C 286.546 1388.922 295.166 1283.047 321.567 1209.594 C 337.686 1164.746 362.291 1099.902 400.901 1071.965 C 435.887 1046.651 498.440 1039.428 541.577 1041.455 Z"/>
<path id="S1" fill="none" stroke="#000000" stroke-width="10" stroke-linecap="round" stroke-linejoin="round" d="M 728.763 1204.915 C 743.030 1244.218 756.066 1294.750 761.895 1333.855 C 768.126 1375.655 772.843 1433.166 772.154 1473.630 C 770.955 1544.167 769.028 1662.155 709.235 1698.841 C 691.104 1709.965 656.940 1707.034 638.362 1696.673 C 602.578 1676.716 596.802 1612.486 571.393 1577.644 C 549.109 1571.728 504.153 1569.670 469.659 1573.936 C 449.252 1619.127 436.733 1675.458 399.411 1694.307 C 392.280 1697.908 381.614 1698.848 372.175 1698.872 C 360.140 1698.905 348.727 1699.190 340.123 1694.772 C 277.424 1662.579 281.395 1501.349 282.973 1466.894 C 286.546 1388.922 295.166 1283.047 321.567 1209.594 "/>
<path id="S2" fill="none" stroke="#000000" stroke-width="10" stroke-linecap="round" stroke-linejoin="round" d="M 682.207 1658.000 C 682.207 1658.003 680.912 1675.081 680.044 1682.369 C 679.382 1687.924 677.311 1700.815 677.311 1700.817 "/>
<path id="S3" fill="none" stroke="#000000" stroke-width="10" stroke-linecap="round" stroke-linejoin="round" d="M 379.516 1643.060 C 379.515 1643.063 377.048 1668.121 375.542 1678.806 C 374.690 1684.850 372.175 1698.870 372.175 1698.872 "/>
<path id="S4" fill="#feb0ab" fill-rule="evenodd" stroke="none" d="M 523.591 1265.105 C 555.266 1265.105 598.990 1286.200 603.167 1364.128 C 607.958 1453.499 558.446 1485.563 522.121 1485.193 C 486.198 1484.828 438.613 1452.471 444.013 1364.128 C 448.775 1286.233 491.915 1265.104 523.591 1265.105 Z"/>
<path id="S5" fill="#f1d6c5" fill-rule="evenodd" stroke="none" d="M 2056.165 879.881 C 2056.165 879.881 2056.165 879.881 2056.165 879.881 C 2056.165 879.881 2056.165 879.881 2056.165 879.881 C 2056.165 879.881 2056.165 879.881 2056.165 879.881 C 2056.165 879.881 2056.165 879.881 2056.165 879.881 Z"/>
</g>
</g>
<g id="Head">
<g id="Ear">
<g id="ear_left">
<g id="Ear_left">
<path id="S1" fill="#feda8e" fill-rule="evenodd" stroke="#000000" stroke-width="7" stroke-linecap="round" stroke-linejoin="round" d="M 200.209 508.170 C 227.026 492.818 360.557 557.865 376.088 580.592 C 379.932 594.182 369.898 616.488 359.706 623.652 C 322.108 650.081 297.339 673.483 271.021 695.341 C 244.062 717.731 214.308 780.929 182.162 771.166 C 148.155 760.837 131.576 547.461 200.209 508.170 Z"/>
<path id="S2" fill="#fa949f" fill-rule="evenodd" stroke="#000000" stroke-width="7" stroke-linecap="round" stroke-linejoin="round" d="M 204.324 554.215 C 219.622 555.646 238.042 572.407 250.345 583.100 C 263.898 594.877 278.906 610.472 288.779 628.978 C 290.356 666.094 241.557 731.391 205.896 720.982 C 182.871 711.677 179.541 562.095 204.324 554.215 Z"/>
</g>
</g>
<g id="ear_right">
<g id="Ear_right">
<path id="S1" fill="#a7b6c9" fill-rule="evenodd" stroke="#000000" stroke-width="7" stroke-linecap="round" stroke-linejoin="round" d="M 858.762 508.094 C 830.153 503.309 787.443 521.682 759.023 533.812 C 734.377 544.331 698.082 558.274 682.883 580.515 C 679.122 593.815 689.073 616.412 699.265 623.576 C 736.862 650.005 761.632 673.407 787.950 695.265 C 814.909 717.655 844.663 780.853 876.809 771.090 C 910.816 760.761 905.867 688.563 908.187 651.563 C 910.016 622.403 908.015 581.666 896.298 554.901 C 889.079 538.412 875.637 514.356 858.762 508.094 Z"/>
<path id="S2" fill="#fa949f" fill-rule="evenodd" stroke="#000000" stroke-width="7" stroke-linecap="round" stroke-linejoin="round" d="M 854.647 554.139 C 839.349 555.569 820.929 572.331 808.626 583.023 C 795.073 594.801 780.065 610.395 770.192 628.902 C 768.615 666.018 817.414 731.315 853.075 720.906 C 876.100 711.601 874.887 664.106 877.921 637.638 C 876.556 609.235 879.430 562.018 854.647 554.139 Z"/>
</g>
</g>
</g>
<g id="Face">
<g id="Face">
<clipPath id="32abc296-bc03-45cf-99e8-25305e6903bb">
<path id="S3" fill="#ffffff" fill-rule="evenodd" stroke="none" d="M 527.805 549.167 C 599.938 548.194 637.955 562.651 681.581 580.326 C 709.436 591.610 743.001 614.646 766.769 633.040 C 782.415 645.148 802.673 662.596 814.804 678.225 C 853.990 728.709 905.052 797.696 910.708 868.441 C 916.317 938.591 891.367 1024.641 846.926 1069.817 C 776.918 1140.984 679.628 1163.292 526.663 1160.171 C 361.408 1156.799 254.150 1130.063 185.471 1046.908 C 148.500 1002.144 137.632 921.024 147.035 857.240 C 157.678 787.237 209.867 714.514 252.852 664.469 C 262.889 652.784 279.463 640.225 292.129 631.395 C 316.614 614.326 351.175 594.177 378.987 583.342 C 421.768 566.675 457.608 550.115 527.805 549.167 Z"/>
</clipPath>
<path id="S3" fill="#ffffff" fill-rule="evenodd" stroke="none" d="M 527.805 549.167 C 599.938 548.194 637.955 562.651 681.581 580.326 C 709.436 591.610 743.001 614.646 766.769 633.040 C 782.415 645.148 802.673 662.596 814.804 678.225 C 853.990 728.709 905.052 797.696 910.708 868.441 C 916.317 938.591 891.367 1024.641 846.926 1069.817 C 776.918 1140.984 679.628 1163.292 526.663 1160.171 C 361.408 1156.799 254.150 1130.063 185.471 1046.908 C 148.500 1002.144 137.632 921.024 147.035 857.240 C 157.678 787.237 209.867 714.514 252.852 664.469 C 262.889 652.784 279.463 640.225 292.129 631.395 C 316.614 614.326 351.175 594.177 378.987 583.342 C 421.768 566.675 457.608 550.115 527.805 549.167 Z"/>
<path id="S3" fill="none" stroke="#000000" stroke-width="7" stroke-linecap="round" stroke-linejoin="round" d="M 527.805 549.167 C 599.938 548.194 637.955 562.651 681.581 580.326 M 766.769 633.040 C 782.415 645.148 802.673 662.596 814.804 678.225 C 853.990 728.709 905.052 797.696 910.708 868.441 C 916.317 938.591 891.367 1024.641 846.926 1069.817 C 776.918 1140.984 679.628 1163.292 526.663 1160.171 C 361.408 1156.799 254.150 1130.063 185.471 1046.908 C 148.500 1002.144 137.632 921.024 147.035 857.240 C 157.678 787.237 209.867 714.514 252.852 664.469 C 262.889 652.784 279.463 640.225 292.129 631.395 M 378.987 583.342 C 421.768 566.675 457.608 550.115 527.805 549.167 "/>
</g>
<g id="Face_Mask_Left">
<path id="S1" fill="#a5b5c9" fill-rule="evenodd" stroke="none" d="M 951.687 507.479 C 831.172 383.851 633.784 426.147 560.483 517.854 C 531.287 554.382 545.873 630.693 564.276 673.682 C 580.828 712.347 627.530 747.806 662.806 768.913 C 704.619 793.930 772.642 799.102 817.876 817.212 C 854.908 832.038 894.591 893.558 937.220 875.835 C 1055.407 826.698 1065.210 623.934 951.687 507.479 Z" clip-path="url(#32abc296-bc03-45cf-99e8-25305e6903bb)"/>
</g>
<g id="Face_Mask_Right">
<path id="S1" fill="#ffda8c" fill-rule="evenodd" stroke="none" d="M 224.752 458.868 C 303.050 404.151 466.713 429.916 538.299 514.293 C 566.530 547.568 570.244 599.344 555.521 638.672 C 541.707 675.572 496.155 696.367 467.228 716.675 C 415.459 753.021 342.647 801.600 280.912 815.379 C 262.515 819.486 236.929 815.423 218.081 815.706 C 192.068 816.098 152.373 833.299 131.388 817.920 C 72.170 774.523 79.536 643.091 105.808 574.535 C 123.619 528.058 187.531 484.879 224.752 458.868 Z" clip-path="url(#32abc296-bc03-45cf-99e8-25305e6903bb)"/>
</g>
</g>
<g id="eye">
<g id="eye_left">
<g id="close_up">
<path id="S1" fill="none" stroke="#000000" stroke-width="18" stroke-linecap="round" stroke-linejoin="round" d="M 308.372 878.435 C 308.377 878.431 341.960 840.262 361.271 841.517 C 380.780 842.785 409.357 885.489 409.362 885.493 "/>
</g>
</g>
<g id="eye_right">
<g id="close_up">
<path id="S1" fill="none" stroke="#000000" stroke-width="18" stroke-linecap="round" stroke-linejoin="round" d="M 739.285 878.435 C 739.280 878.431 705.698 840.262 686.386 841.517 C 666.877 842.785 638.300 885.489 638.295 885.493 "/>
</g>
</g>
</g>
<g id="Mount">
<g id="Closed">
<path id="S1" fill="#ffffff" fill-rule="evenodd" stroke="none" d="M 517.860 939.942 C 539.157 940.310 578.025 937.064 585.985 959.943 C 592.217 977.856 572.867 985.521 561.519 985.608 C 548.661 985.705 529.819 978.825 522.248 968.431 C 517.109 961.375 520.993 940.750 518.099 939.630 C 516.758 939.112 518.175 960.294 513.328 967.117 C 505.888 977.591 486.088 988.210 475.045 986.313 C 463.349 984.303 444.348 976.277 447.259 958.155 C 450.727 936.558 495.989 939.564 517.860 939.942 Z"/>
<path id="S1" fill="none" stroke="#000000" stroke-width="11" stroke-linecap="round" stroke-linejoin="round" d="M 585.985 959.943 C 592.217 977.856 572.867 985.521 561.519 985.608 C 548.661 985.705 529.819 978.825 522.248 968.431 C 517.109 961.375 520.993 940.750 518.099 939.630 C 516.758 939.112 518.175 960.294 513.328 967.117 C 505.888 977.591 486.088 988.210 475.045 986.313 C 463.349 984.303 444.348 976.277 447.259 958.155 "/>
</g>
</g>
<g id="Nose">
<path id="S1" fill="#f34e46" fill-rule="evenodd" stroke="none" d="M 515.551 905.642 C 537.344 905.099 546.357 912.838 546.464 921.267 C 546.572 929.790 537.580 938.444 515.551 937.722 C 495.260 937.058 487.797 928.840 487.973 920.992 C 488.145 913.312 495.692 906.135 515.551 905.642 Z"/>
</g>
<g id="eyebrow">
<g id="eyebrow_left">
<path id="S1" fill="#000000" fill-rule="evenodd" stroke="#000000" stroke-width="7" stroke-linecap="round" stroke-linejoin="round" d="M 381.686 755.829 C 385.957 757.031 389.309 759.586 389.815 764.344 C 390.447 770.288 386.862 774.617 381.686 776.599 C 371.491 780.504 354.664 778.244 354.548 766.471 C 354.430 754.624 371.110 752.853 381.686 755.829 Z"/>
</g>
<g id="eyebrow_right">
<path id="S1" fill="#000000" fill-rule="evenodd" stroke="#000000" stroke-width="7" stroke-linecap="round" stroke-linejoin="round" d="M 681.832 760.706 C 691.395 759.971 704.854 761.456 704.736 771.799 C 704.618 782.048 691.302 783.167 681.832 782.356 C 674.375 781.718 665.183 779.603 665.183 771.532 C 665.182 763.460 674.369 761.279 681.832 760.706 Z"/>
</g>
</g>
<g id="cheekbone">
<g id="cheekbone_left">
<path id="S1" fill="#feb0ab" fill-rule="evenodd" stroke="none" d="M 275.843 993.080 C 311.174 993.339 320.685 1010.298 319.998 1020.094 C 319.345 1029.402 308.772 1041.295 275.196 1041.295 C 241.621 1041.295 231.018 1029.404 230.395 1020.094 C 229.726 1010.096 239.790 992.817 275.843 993.080 Z"/>
</g>
<g id="cheekbone_right">
<path id="S1" fill="#feb0ab" fill-rule="evenodd" stroke="none" d="M 779.537 994.372 C 814.869 994.630 824.379 1011.590 823.692 1021.385 C 823.040 1030.694 812.466 1042.587 778.891 1042.587 C 745.316 1042.587 734.712 1030.696 734.090 1021.385 C 733.421 1011.388 743.484 994.108 779.537 994.372 Z"/>
</g>
</g>
</g>
</g>
</svg>
